<svg width="43" height="42" viewBox="0 0 43 42" fill="none" xmlns="http://www.w3.org/2000/svg">
<path d="M4.39557 38.1434H38.6044" stroke="#EEEEEE" stroke-width="4" stroke-miterlimit="10" stroke-linecap="round" stroke-linejoin="round"/>
<path d="M6.02048 38.1435L6.106 17.3241C6.106 16.2684 6.60203 15.2648 7.42304 14.6071L19.3961 5.17522C20.6277 4.20608 22.3552 4.20608 23.6038 5.17522L35.5769 14.5898C36.4151 15.2474 36.894 16.2511 36.894 17.3241V38.1435" stroke="#EEEEEE" stroke-width="4" stroke-miterlimit="10" stroke-linejoin="round"/>
<path d="M23.2104 29.4904H19.7895C18.3699 29.4904 17.2239 30.6499 17.2239 32.0863V38.1435H25.7761V32.0863C25.7761 30.6499 24.6301 29.4904 23.2104 29.4904Z" stroke="#EEEEEE" stroke-width="4" stroke-miterlimit="10" stroke-linejoin="round"/>
<path d="M17.2239 23.8659H13.803C12.8623 23.8659 12.0926 23.0871 12.0926 22.1353V19.5393C12.0926 18.5875 12.8623 17.8087 13.803 17.8087H17.2239C18.1646 17.8087 18.9343 18.5875 18.9343 19.5393V22.1353C18.9343 23.0871 18.1646 23.8659 17.2239 23.8659Z" stroke="#EEEEEE" stroke-width="4" stroke-miterlimit="10" stroke-linejoin="round"/>
<path d="M29.197 23.8659H25.7761C24.8353 23.8659 24.0656 23.0871 24.0656 22.1353V19.5393C24.0656 18.5875 24.8353 17.8087 25.7761 17.8087H29.197C30.1377 17.8087 30.9074 18.5875 30.9074 19.5393V22.1353C30.9074 23.0871 30.1377 23.8659 29.197 23.8659Z" stroke="#EEEEEE" stroke-width="4" stroke-miterlimit="10" stroke-linejoin="round"/>
<path d="M33.4731 12.1842L33.4218 6.99231H25.8958" stroke="#EEEEEE" stroke-width="4" stroke-miterlimit="10" stroke-linecap="round" stroke-linejoin="round"/>
</svg>
