<svg width="68" height="68" viewBox="0 0 68 68" fill="none" xmlns="http://www.w3.org/2000/svg">
<ellipse cx="34.0633" cy="34.3954" rx="33.1899" ry="33.5814" fill="#F3821A"/>
<path d="M17.3956 52.1434H51.6044" stroke="#EEEEEE" stroke-width="4" stroke-miterlimit="10" stroke-linecap="round" stroke-linejoin="round"/>
<path d="M19.0205 52.1435L19.106 31.3241C19.106 30.2684 19.602 29.2648 20.423 28.6071L32.3961 19.1752C33.6277 18.2061 35.3552 18.2061 36.6038 19.1752L48.5769 28.5898C49.4151 29.2474 49.894 30.2511 49.894 31.3241V52.1435" stroke="#EEEEEE" stroke-width="4" stroke-miterlimit="10" stroke-linejoin="round"/>
<path d="M36.2104 43.4904H32.7895C31.3699 43.4904 30.2239 44.6499 30.2239 46.0863V52.1435H38.7761V46.0863C38.7761 44.6499 37.6301 43.4904 36.2104 43.4904Z" stroke="#EEEEEE" stroke-width="4" stroke-miterlimit="10" stroke-linejoin="round"/>
<path d="M30.2239 37.8659H26.803C25.8623 37.8659 25.0926 37.0871 25.0926 36.1353V33.5393C25.0926 32.5875 25.8623 31.8087 26.803 31.8087H30.2239C31.1646 31.8087 31.9343 32.5875 31.9343 33.5393V36.1353C31.9343 37.0871 31.1646 37.8659 30.2239 37.8659Z" stroke="#EEEEEE" stroke-width="4" stroke-miterlimit="10" stroke-linejoin="round"/>
<path d="M42.197 37.8659H38.7761C37.8353 37.8659 37.0656 37.0871 37.0656 36.1353V33.5393C37.0656 32.5875 37.8353 31.8087 38.7761 31.8087H42.197C43.1377 31.8087 43.9074 32.5875 43.9074 33.5393V36.1353C43.9074 37.0871 43.1377 37.8659 42.197 37.8659Z" stroke="#EEEEEE" stroke-width="4" stroke-miterlimit="10" stroke-linejoin="round"/>
<path d="M46.4731 26.1842L46.4218 20.9923H38.8958" stroke="#EEEEEE" stroke-width="4" stroke-miterlimit="10" stroke-linecap="round" stroke-linejoin="round"/>
</svg>
